<svg width="350" height="100" viewBox="0 0 350 100" fill="none" xmlns="http://www.w3.org/2000/svg">
<g id="triangulos" clip-path="url(#clip0)">
<g id="escuros">
<path id="escuror" d="M189.5 43.9378C194.167 46.6321 194.167 53.3679 189.5 56.0622L135.5 87.2391C130.833 89.9334 125 86.5655 125 81.1769V18.8231C125 13.4345 130.833 10.0666 135.5 12.7609L189.5 43.9378Z" fill="#990E0E"/>
<path id="escuro" d="M239.5 43.9378C244.167 46.6321 244.167 53.3679 239.5 56.0622L185.5 87.2391C180.833 89.9334 175 86.5655 175 81.1769V18.8231C175 13.4345 180.833 10.0666 185.5 12.7609L239.5 43.9378Z" fill="#990E0E"/>
</g>
<g id="claros">
<path id="claro" d="M189.5 43.9378C194.167 46.6321 194.167 53.3679 189.5 56.0622L135.5 87.2391C130.833 89.9334 125 86.5655 125 81.1769V18.8231C125 13.4345 130.833 10.0666 135.5 12.7609L189.5 43.9378Z" fill="#C58181"/>
</g>
</g>
<defs>
<clipPath id="clip0">
<rect width="350" height="100" fill="white"/>
</clipPath>
</defs>
</svg>
